<svg width="669" height="174" viewBox="0 0 669 174" fill="none" xmlns="http://www.w3.org/2000/svg">
<path d="M159.723 141.289V144.529H152.825V163.744H148.819V144.529H141.92V141.289H159.723Z" fill="#FF3700"/>
<path d="M182.756 152.349C182.756 160.616 176.97 164.191 171.629 164.191C165.621 164.191 160.948 159.723 160.948 152.684C160.948 145.199 165.843 140.842 171.963 140.842C178.417 140.842 182.756 145.534 182.756 152.349ZM165.176 152.573C165.176 157.488 167.957 161.175 171.852 161.175C175.746 161.175 178.639 157.488 178.639 152.461C178.639 148.662 176.748 143.97 171.963 143.97C167.179 143.859 165.176 148.327 165.176 152.573Z" fill="#FF3700"/>
<path d="M187.874 148.662C187.874 145.758 187.763 143.523 187.652 141.401H191.212L191.435 145.199H191.546C193.104 142.518 195.774 140.954 199.446 140.954C204.899 140.954 208.904 145.534 208.904 152.237C208.904 160.281 204.008 164.303 198.779 164.303C195.886 164.303 193.215 162.962 191.88 160.84H191.769V173.017H187.763V148.662H187.874ZM191.88 154.584C191.88 155.142 191.88 155.701 192.103 156.259C192.881 159.052 195.329 161.063 198.222 161.063C202.451 161.063 205.01 157.6 205.01 152.461C205.01 147.992 202.673 144.194 198.334 144.194C195.552 144.194 192.993 146.093 192.214 149.221C192.103 149.78 191.991 150.338 191.991 150.785V154.584H191.88Z" fill="#FF3700"/>
<path d="M227.597 141.289V144.529H217.917V163.633H213.911V141.289H227.597Z" fill="#FF3700"/>
<path d="M250.963 152.349C250.963 160.616 245.177 164.191 239.836 164.191C233.828 164.191 229.155 159.723 229.155 152.684C229.155 145.199 234.05 140.842 240.17 140.842C246.735 140.842 250.963 145.534 250.963 152.349ZM233.383 152.573C233.383 157.488 236.164 161.175 240.059 161.175C243.953 161.175 246.846 157.488 246.846 152.461C246.846 148.662 244.955 143.97 240.17 143.97C235.497 143.859 233.383 148.327 233.383 152.573Z" fill="#FF3700"/>
<path d="M255.971 141.624C257.528 141.401 260.533 141.066 263.092 141.066C266.875 141.066 272.995 141.736 272.995 146.651C272.995 149.444 270.881 151.232 268.322 151.679V151.791C271.548 152.237 273.996 154.025 273.996 157.265C273.996 163.186 266.653 163.856 262.313 163.856C259.865 163.856 257.195 163.633 255.971 163.633V141.624ZM259.865 161.063C260.978 161.175 261.868 161.175 263.092 161.175C265.874 161.175 269.879 160.616 269.879 157.265C269.879 154.025 266.653 153.355 262.758 153.355H259.865V161.063ZM259.865 150.785H262.869C265.874 150.785 268.989 149.891 268.989 147.21C268.989 144.976 267.098 143.97 262.981 143.97C261.645 143.97 260.755 144.082 259.865 144.194V150.785Z" fill="#FF3700"/>
<path d="M294.804 158.27C294.804 160.169 294.915 162.069 295.137 163.633H291.466L291.132 160.84H291.021C289.797 162.627 287.349 164.191 284.233 164.191C279.671 164.191 277.446 160.951 277.446 157.823C277.446 152.461 282.23 149.444 290.798 149.556V149.109C290.798 147.322 290.242 143.97 285.791 143.97C283.677 143.97 281.563 144.529 279.894 145.646L279.004 142.965C280.895 141.848 283.566 141.066 286.347 141.066C293.135 141.066 294.804 145.758 294.804 150.115V158.27ZM290.909 152.237C286.459 152.126 281.451 152.908 281.451 157.265C281.451 159.946 283.232 161.175 285.235 161.175C288.128 161.175 290.019 159.276 290.687 157.488C290.798 157.041 290.909 156.594 290.909 156.148V152.237Z" fill="#FF3700"/>
<path d="M317.836 163.633H313.83V154.248H310.826C309.157 154.248 307.933 154.695 307.154 155.589C305.485 156.93 304.817 159.611 303.927 161.845C303.705 162.515 303.371 163.186 303.037 163.744H298.698C299.254 162.962 299.699 162.18 300.033 161.175C301.034 159.052 301.591 156.148 303.482 154.472C304.15 153.913 305.04 153.355 306.041 153.131V153.019C303.148 152.684 300.144 150.897 300.144 147.434C300.144 145.087 301.368 143.523 303.037 142.63C304.929 141.512 307.599 141.066 310.492 141.066C313.162 141.066 315.722 141.289 317.613 141.512V163.633H317.836ZM313.83 143.97C312.829 143.859 311.939 143.747 310.492 143.747C307.822 143.747 304.484 144.529 304.484 147.657C304.484 150.562 308.044 151.567 310.381 151.567C312.05 151.567 312.94 151.567 313.83 151.567V143.97Z" fill="#FF3700"/>
<path d="M352.552 141.289V163.633H348.547V144.417H338.199V163.633H334.193V141.289H352.552Z" fill="#FF3700"/>
<path d="M376.029 141.289V163.633H372.024V144.417H364.346V150.115C364.346 156.371 363.79 160.616 360.897 162.515C359.784 163.409 358.56 163.856 356.446 163.856L356.001 160.616C356.78 160.505 357.67 160.169 358.226 159.723C360.34 158.158 360.563 155.03 360.563 150.115V141.177H376.029V141.289Z" fill="#FF3700"/>
<path d="M402.734 152.349C402.734 160.616 396.948 164.191 391.608 164.191C385.599 164.191 380.926 159.723 380.926 152.684C380.926 145.199 385.822 140.842 391.941 140.842C398.395 140.842 402.734 145.534 402.734 152.349ZM385.154 152.573C385.154 157.488 387.936 161.175 391.83 161.175C395.724 161.175 398.617 157.488 398.617 152.461C398.617 148.662 396.726 143.97 391.941 143.97C387.157 143.859 385.154 148.327 385.154 152.573Z" fill="#FF3700"/>
<path d="M411.747 141.289V160.505H419.535V141.289H423.541V160.505H431.219V141.289H435.224V160.616H437.561L437.338 170.671H434.112L434 163.633H407.741V141.289H411.747Z" fill="#FF3700"/>
<path d="M457.924 158.27C457.924 160.169 458.035 162.069 458.257 163.633H454.586L454.252 160.84H454.141C452.917 162.627 450.469 164.191 447.353 164.191C442.791 164.191 440.566 160.951 440.566 157.823C440.566 152.461 445.35 149.444 453.918 149.556V149.109C453.918 147.322 453.362 143.97 448.911 143.97C446.797 143.97 444.683 144.529 443.014 145.646L442.123 142.965C444.015 141.848 446.685 141.066 449.467 141.066C456.255 141.066 457.924 145.758 457.924 150.115V158.27ZM454.029 152.237C449.578 152.126 444.571 152.908 444.571 157.265C444.571 159.946 446.352 161.175 448.355 161.175C451.247 161.175 453.139 159.276 453.807 157.488C453.918 157.041 454.029 156.594 454.029 156.148V152.237Z" fill="#FF3700"/>
<path d="M481.736 141.289V160.616H484.072L483.85 170.671H480.623L480.401 163.633H464.934L464.712 170.671H461.596L461.374 160.616L463.265 160.505C464.267 159.052 464.934 157.6 465.49 155.924C466.381 153.131 466.826 150.115 466.826 146.987V141.177H481.736V141.289ZM470.386 148.104C470.386 151.12 470.053 154.025 469.274 156.483C468.829 158.047 468.161 159.387 467.493 160.616H477.73V144.417H470.386V148.104Z" fill="#FF3700"/>
<path d="M492.862 141.289V151.009H493.864L502.209 141.289H507.105L497.424 151.344C500.985 151.791 503.21 154.137 504.879 158.159C505.436 159.611 506.215 161.845 507.216 163.633H502.988C502.431 162.627 501.653 160.951 500.874 159.052C499.316 155.477 497.313 153.801 493.53 153.801H492.751V163.633H488.745V141.289H492.862Z" fill="#FF3700"/>
<path d="M527.021 158.27C527.021 160.169 527.132 162.069 527.355 163.633H523.683L523.349 160.84H523.238C522.014 162.627 519.566 164.191 516.45 164.191C511.888 164.191 509.663 160.951 509.663 157.823C509.663 152.461 514.447 149.444 523.015 149.556V149.109C523.015 147.322 522.459 143.97 518.008 143.97C515.894 143.97 513.78 144.529 512.111 145.646L511.221 142.965C513.112 141.848 515.783 141.066 518.564 141.066C525.352 141.066 527.021 145.758 527.021 150.115V158.27ZM523.126 152.237C518.676 152.126 513.669 152.908 513.669 157.265C513.669 159.946 515.449 161.175 517.452 161.175C520.345 161.175 522.236 159.276 522.904 157.488C523.015 157.041 523.126 156.594 523.126 156.148V152.237Z" fill="#FF3700"/>
<path d="M65.033 61.8572H36.7708C39.2187 55.7126 47.0075 36.0502 50.9019 26.4424C54.685 36.0502 62.5851 55.8244 65.033 61.8572ZM61.6949 3.3166C61.1386 2.08769 60.0259 1.30566 58.6907 1.30566H44.2258C42.8905 1.30566 41.6666 2.08769 41.2215 3.3166L0.274631 99.3946C-0.170444 100.4 -0.059175 101.629 0.497168 102.523C1.16478 103.416 2.27747 103.975 3.39015 103.975H17.8551C19.1903 103.975 20.4143 103.193 20.8593 101.852C20.8593 101.852 28.3143 83.1954 29.7608 79.7321H72.1542C73.6007 83.1954 81.0557 101.852 81.0557 101.852C81.612 103.081 82.836 103.975 84.1712 103.975H99.0812C100.194 103.975 101.195 103.416 101.863 102.523C102.419 101.629 102.531 100.4 102.197 99.3946L61.6949 3.3166Z" fill="#FF3700"/>
<path d="M168.402 24.5432H155.383C153.492 24.5432 152.045 26.1072 152.045 27.8947V60.8517C152.045 69.2306 150.488 75.7103 147.372 80.179C144.257 84.7595 139.917 86.8821 133.797 86.7704C129.347 86.6587 126.565 85.0947 124.785 81.8548C122.893 78.3915 121.892 72.6939 121.892 64.6501V27.8947C121.892 25.9955 120.445 24.5432 118.554 24.5432H105.646C103.755 24.5432 102.308 26.1072 102.308 27.8947V70.1244C102.308 98.1657 118.554 104.087 132.24 104.087C137.803 104.087 143.033 102.746 147.817 100.177C149.486 99.1712 151.044 98.1657 152.379 96.9368V99.0595C152.379 100.959 153.937 102.411 155.717 102.411H168.291C170.182 102.411 171.629 100.847 171.629 99.0595V27.8947C171.74 26.1072 170.293 24.5432 168.402 24.5432Z" fill="#FF3700"/>
<path d="M303.038 86.4353C302.147 85.9884 301.035 85.9884 300.145 86.547C297.808 87.9994 295.249 88.6697 292.133 88.6697C289.351 88.6697 287.571 87.8876 285.791 86.2118C284.011 84.4244 283.009 81.9665 283.009 78.3915V41.4127H300.478C301.257 41.4127 301.925 41.1893 302.481 40.6307C303.038 40.1838 303.26 39.5135 303.26 38.7314V28.0065C303.26 27.3361 302.926 26.6658 302.481 26.1072C301.925 25.6604 301.257 25.1018 300.478 25.1018H283.009V2.64633C283.009 1.75259 282.564 0.970555 281.896 0.523681C281.118 -0.0349121 280.227 -0.146631 279.337 0.188525L265.317 0.300244C264.205 0.6354 263.426 1.64087 263.426 2.86977V25.2135H249.184C248.405 25.2135 247.514 25.7721 247.069 26.219C246.513 26.6658 246.291 27.4479 246.291 28.1182V38.8432C246.291 39.5135 246.624 40.1838 247.069 40.7424C247.626 41.1893 248.293 41.5244 249.072 41.5244H263.537V81.1845C263.537 88.6697 265.651 94.8142 270.325 98.9478C274.887 103.081 281.563 104.981 289.797 104.981C293.357 104.981 297.474 104.199 302.592 102.858C303.816 102.523 304.595 101.517 304.595 100.288V88.7814C304.484 87.7759 303.928 86.8822 303.038 86.4353Z" fill="#FF3700"/>
<path d="M431.775 104.199H445.016C446.908 104.199 448.465 102.634 448.465 100.735V67.1079C448.465 58.6173 450.023 51.9142 453.25 47.3337C456.365 42.6416 460.927 40.4072 467.047 40.6306C471.609 40.7424 474.502 42.3064 476.282 45.5462C478.285 49.0095 479.175 54.9306 479.175 63.0861V100.624C479.175 102.523 480.733 104.087 482.625 104.087H495.866C497.757 104.087 499.315 102.523 499.315 100.624V57.6119C499.315 28.9002 482.736 22.8674 468.716 22.8674C463.042 22.8674 457.701 24.208 452.805 26.8892C451.024 27.8947 449.578 29.0119 448.132 30.2408V28.1181C448.132 26.2189 446.574 24.6549 444.682 24.6549H431.775C429.883 24.6549 428.326 26.2189 428.326 28.1181V100.847C428.326 102.634 429.883 104.199 431.775 104.199Z" fill="#FF3700"/>
<path d="M318.949 4.21031C318.949 6.10953 317.391 7.56187 315.611 7.56187C313.719 7.56187 312.272 5.99781 312.272 4.21031V3.54C312.272 1.64078 313.719 0.0767212 315.611 0.0767212C317.502 0.0767212 318.949 1.64078 318.949 3.54V4.21031Z" fill="#FF3700"/>
<path d="M332.189 4.21031C332.189 6.10953 330.632 7.56187 328.851 7.56187C326.96 7.56187 325.513 5.99781 325.513 4.21031V3.54C325.513 1.64078 326.96 0.0767212 328.851 0.0767212C330.743 0.0767212 332.189 1.64078 332.189 3.54V4.21031Z" fill="#FF3700"/>
<path d="M318.948 16.4992C318.948 18.3985 317.391 19.9625 315.61 19.9625C313.719 19.9625 312.272 18.3985 312.272 16.4992V15.7172C312.272 13.818 313.719 12.3657 315.61 12.3657C317.502 12.3657 318.948 13.9297 318.948 15.7172V16.4992Z" fill="#FF3700"/>
<path d="M332.189 16.4992C332.189 18.3985 330.632 19.9625 328.851 19.9625C326.96 19.9625 325.513 18.3985 325.513 16.4992V15.7172C325.513 13.818 326.96 12.3657 328.851 12.3657C330.743 12.3657 332.189 13.9297 332.189 15.7172V16.4992Z" fill="#FF3700"/>
<path d="M332.078 3.53998H312.272V16.1642H332.078V3.53998Z" fill="#FF3700"/>
<path d="M328.74 0.0767212H315.61V19.9626H328.74V0.0767212Z" fill="#FF3700"/>
<path d="M318.948 28.5649C318.948 30.2407 317.391 31.5814 315.61 31.5814C313.719 31.5814 312.272 30.2407 312.272 28.5649V27.8946C312.272 26.2189 313.719 24.8782 315.61 24.8782C317.502 24.8782 318.948 26.2189 318.948 27.8946V28.5649Z" fill="#FF3700"/>
<path d="M332.189 28.5649C332.189 30.2407 330.632 31.5814 328.851 31.5814C326.96 31.5814 325.513 30.2407 325.513 28.5649V27.8946C325.513 26.2189 326.96 24.8782 328.851 24.8782C330.743 24.8782 332.189 26.2189 332.189 27.8946V28.5649Z" fill="#FF3700"/>
<path d="M318.948 100.735C318.948 102.411 317.502 103.752 315.61 103.752C313.719 103.752 312.272 102.411 312.272 100.735V100.065C312.272 98.3892 313.719 97.0486 315.61 97.0486C317.502 97.0486 318.948 98.3892 318.948 100.065V100.735Z" fill="#FF3700"/>
<path d="M332.189 100.735C332.189 102.411 330.632 103.752 328.851 103.752C326.96 103.752 325.513 102.411 325.513 100.735V100.065C325.513 98.3892 327.071 97.0486 328.851 97.0486C330.743 97.0486 332.189 98.3892 332.189 100.065V100.735Z" fill="#FF3700"/>
<path d="M332.078 27.8947H312.272V100.4H332.078V27.8947Z" fill="#FF3700"/>
<path d="M328.74 24.8782H315.61V103.752H328.74V24.8782Z" fill="#FF3700"/>
<path d="M394.597 78.5931C391.259 83.2853 386.697 85.6314 380.8 85.6314C374.791 85.6314 370.229 83.2853 366.891 78.5931C363.776 74.2361 362.218 69.097 362.218 62.8408C362.218 56.4728 363.887 51.2221 367.225 46.865C370.786 42.2846 375.125 40.0502 380.8 40.0502C386.252 40.0502 390.703 42.2846 394.152 46.865C397.49 51.3338 399.159 56.4728 399.159 62.8408C399.271 69.097 397.713 74.3478 394.597 78.5931ZM380.911 23.069C369.451 23.069 360.104 26.8674 352.872 34.3525C345.75 41.8377 342.19 51.4455 342.19 62.9525C342.19 73.9009 345.75 83.397 352.983 90.8822C360.327 98.7025 369.784 102.724 381.022 102.724C392.149 102.724 401.496 98.7025 408.84 90.8822C415.961 83.2853 419.521 73.9009 419.521 62.9525C419.521 51.4455 415.961 41.8377 408.84 34.4643C401.607 26.8674 392.261 23.069 380.911 23.069Z" fill="#FF3700"/>
<path d="M239.058 28.1181C239.169 29.2353 238.724 31.9165 237.723 36.0501C236.721 40.1837 236.054 42.3064 235.609 42.3064C233.161 41.4126 230.713 40.5189 228.154 39.6251C225.706 38.7314 223.035 38.3962 220.142 38.5079C213.577 38.9548 208.348 41.7478 204.342 46.8868C200.336 52.0259 198.556 57.947 199.001 64.5384C199.446 71.0181 202.005 76.4923 206.679 80.961C211.463 85.5415 217.027 87.6641 223.48 87.2173C227.041 86.9938 230.49 85.8766 233.828 83.8657C237.166 81.8548 238.613 80.8493 238.168 80.961C238.835 80.961 239.725 83.0837 240.949 87.5524C242.062 91.5743 242.618 94.3673 242.73 95.8196C242.841 97.4954 239.837 99.2829 233.717 101.294C228.599 102.97 224.815 103.863 222.368 104.087C211.463 104.869 201.894 101.294 193.883 93.5852C185.983 86.1001 181.643 76.8274 180.976 65.7673C180.197 54.4837 183.201 44.6525 189.877 36.2736C196.776 27.6712 205.789 22.979 216.804 22.3087C224.259 21.8619 231.158 23.2025 237.5 26.6658C238.39 27.1126 238.947 27.6712 239.058 28.1181Z" fill="#FF3700"/>
<path d="M591.223 28.3416C591.223 26.6659 590.11 25.3252 588.441 24.9901C584.881 24.3198 581.765 23.9846 578.983 23.9846C574.533 23.9846 570.193 25.437 566.076 28.1182C565.075 28.7885 564.185 29.5706 563.294 30.3526V29.012C563.294 27.1127 561.737 25.5487 559.956 25.5487H547.494C545.603 25.5487 544.045 27.1127 544.045 29.012V101.182C544.045 103.081 545.603 104.645 547.494 104.645H560.735C562.627 104.645 564.185 103.081 564.185 101.182V68.4486C564.185 60.1815 565.742 53.5901 568.969 48.8979C571.862 44.5408 575.645 42.4182 580.541 42.4182C582.989 42.4182 584.992 42.7534 586.661 43.4237C587.662 43.8705 588.886 43.7588 589.888 43.0885C590.778 42.4182 591.334 41.4127 591.334 40.2955V28.3416H591.223Z" fill="#FF3700"/>
<path d="M665.662 24.7665H652.644C650.752 24.7665 649.306 26.3306 649.306 28.1181V61.1868C649.306 69.5657 647.748 76.1571 644.633 80.6258C641.517 85.2063 637.066 87.329 631.058 87.2172C626.607 87.1055 623.825 85.5415 622.045 82.3016C620.153 78.8383 619.152 73.029 619.152 64.9852V28.1181C619.152 26.2189 617.594 24.7665 615.814 24.7665H602.684C600.793 24.7665 599.346 26.3306 599.346 28.1181V70.5712C599.346 98.7243 615.703 104.757 629.389 104.757C634.952 104.757 640.293 103.416 645.078 100.847C646.747 99.8415 648.304 98.836 649.64 97.6071V99.7297C649.64 101.629 651.197 103.081 652.978 103.081H665.662C667.554 103.081 669 101.517 669 99.7297V28.2298C669 26.2189 667.554 24.7665 665.662 24.7665Z" fill="#FF3700"/>
<path d="M518.119 87.6642C518.119 89.5635 516.561 91.0158 514.781 91.0158C512.889 91.0158 511.443 89.4517 511.443 87.6642V86.9939C511.443 85.0947 512.889 83.5306 514.781 83.5306C516.673 83.5306 518.119 85.0947 518.119 86.9939V87.6642Z" fill="#FF3700"/>
<path d="M531.36 87.6642C531.36 89.5635 529.802 91.0158 528.022 91.0158C526.13 91.0158 524.684 89.4517 524.684 87.6642V86.9939C524.684 85.0947 526.13 83.5306 528.022 83.5306C529.913 83.5306 531.36 85.0947 531.36 86.9939V87.6642Z" fill="#FF3700"/>
<path d="M518.119 99.9532C518.119 101.852 516.561 103.416 514.781 103.416C512.889 103.416 511.443 101.852 511.443 99.9532V99.1711C511.443 97.2719 512.889 95.8196 514.781 95.8196C516.673 95.8196 518.119 97.3836 518.119 99.1711V99.9532Z" fill="#FF3700"/>
<path d="M531.36 99.9532C531.36 101.852 529.802 103.416 528.022 103.416C526.13 103.416 524.684 101.852 524.684 99.9532V99.1711C524.684 97.2719 526.13 95.8196 528.022 95.8196C529.913 95.8196 531.36 97.3836 531.36 99.1711V99.9532Z" fill="#FF3700"/>
<path d="M531.249 86.9939H511.443V99.6181H531.249V86.9939Z" fill="#FF3700"/>
<path d="M527.91 83.5306H514.781V103.417H527.91V83.5306Z" fill="#FF3700"/>
</svg>
